HIERARCHY
ROOT pelvis
{
	OFFSET 0.003123 -0.351407 0.012037
	CHANNELS 6 Xposition Yposition Zposition Zrotation Yrotation Xrotation 
	JOINT left_hip
	{
		OFFSET 0.058189 -0.092763 -0.026001
		CHANNELS 3 Zrotation Yrotation Xrotation
		JOINT left_knee
		{
			OFFSET 0.054695 -0.378753 -0.009396
			CHANNELS 3 Zrotation Yrotation Xrotation
			JOINT left_ankle
			{
				OFFSET -0.043453 -0.403059 -0.031876
				CHANNELS 3 Zrotation Yrotation Xrotation
				JOINT left_foot
				{
					OFFSET 0.047257 -0.057997 0.118216
					CHANNELS 3 Zrotation Yrotation Xrotation
					End Site
					{
						OFFSET 0.000000 0.000000 0.000000
					}
				}
			}
		}
	}
	JOINT right_hip
	{
		OFFSET -0.063267 -0.103908 -0.021250
		CHANNELS 3 Zrotation Yrotation Xrotation
		JOINT right_knee
		{
			OFFSET -0.044210 -0.362380 -0.016824
			CHANNELS 3 Zrotation Yrotation Xrotation
			JOINT right_ankle
			{
				OFFSET 0.015417 -0.410728 -0.020192
				CHANNELS 3 Zrotation Yrotation Xrotation
				JOINT right_foot
				{
					OFFSET -0.038812 -0.058328 0.119049
					CHANNELS 3 Zrotation Yrotation Xrotation
					End Site
					{
						OFFSET 0.000000 0.000000 0.000000
					}
				}
			}
		}
	}
	JOINT spine_1
	{
		OFFSET -0.002763 0.109891 -0.027618
		CHANNELS 3 Zrotation Yrotation Xrotation
		JOINT spine_2
		{
			OFFSET 0.009448 0.131853 -0.005940
			CHANNELS 3 Zrotation Yrotation Xrotation
			JOINT spine_3
			{
				OFFSET -0.011330 0.052235 0.028447
				CHANNELS 3 Zrotation Yrotation Xrotation
				JOINT neck
				{
					OFFSET -0.012164 0.165167 -0.031615
					CHANNELS 3 Zrotation Yrotation Xrotation
					JOINT head
					{
						OFFSET 0.024783 0.160452 0.020737
						CHANNELS 3 Zrotation Yrotation Xrotation
						End Site
						{
							OFFSET 0.000000 0.000000 0.000000
						}
					}
				}
				JOINT left_collar
				{
					OFFSET 0.046364 0.084944 -0.007220
					CHANNELS 3 Zrotation Yrotation Xrotation
					JOINT left_shoulder
					{
						OFFSET 0.119239 0.057728 -0.015461
						CHANNELS 3 Zrotation Yrotation Xrotation
						JOINT left_elbow
						{
							OFFSET 0.254123 -0.072151 -0.042459
							CHANNELS 3 Zrotation Yrotation Xrotation
							JOINT left_wrist
							{
								OFFSET 0.251987 0.023221 -0.002472
								CHANNELS 3 Zrotation Yrotation Xrotation
								JOINT left_index_1
								{
									OFFSET 0.101902 -0.008688 0.019351
									CHANNELS 3 Zrotation Yrotation Xrotation
									JOINT left_index_2
									{
										OFFSET 0.030149 -0.011154 0.001151
										CHANNELS 3 Zrotation Yrotation Xrotation
										JOINT left_index_3
										{
											OFFSET 0.006504 -0.021577 -0.002433
											CHANNELS 3 Zrotation Yrotation Xrotation
											End Site
											{
												OFFSET 0.000000 0.000000 0.000000
											}
										}
									}
								}
								JOINT left_middle_1
								{
									OFFSET 0.109398 -0.006328 -0.003981
									CHANNELS 3 Zrotation Yrotation Xrotation
									JOINT left_middle_2
									{
										OFFSET 0.026472 -0.015218 -0.004641
										CHANNELS 3 Zrotation Yrotation Xrotation
										JOINT left_middle_3
										{
											OFFSET 0.005022 -0.023347 -0.001911
											CHANNELS 3 Zrotation Yrotation Xrotation
											End Site
											{
												OFFSET 0.000000 0.000000 0.000000
											}
										}
									}
								}
								JOINT left_pinky_1
								{
									OFFSET 0.084047 -0.014539 -0.043750
									CHANNELS 3 Zrotation Yrotation Xrotation
									JOINT left_pinky_2
									{
										OFFSET 0.012124 -0.014448 -0.005375
										CHANNELS 3 Zrotation Yrotation Xrotation
										JOINT left_pinky_3
										{
											OFFSET 0.003798 -0.018853 0.000167
											CHANNELS 3 Zrotation Yrotation Xrotation
											End Site
											{
												OFFSET 0.000000 0.000000 0.000000
											}
										}
									}
								}
								JOINT left_ring_1
								{
									OFFSET 0.097444 -0.009268 -0.027345
									CHANNELS 3 Zrotation Yrotation Xrotation
									JOINT left_ring_2
									{
										OFFSET 0.023561 -0.016057 -0.001895
										CHANNELS 3 Zrotation Yrotation Xrotation
										JOINT left_ring_3
										{
											OFFSET 0.004257 -0.023548 0.000814
											CHANNELS 3 Zrotation Yrotation Xrotation
											End Site
											{
												OFFSET 0.000000 0.000000 0.000000
											}
										}
									}
								}
								JOINT left_thumb_1
								{
									OFFSET 0.040636 -0.017977 0.025611
									CHANNELS 3 Zrotation Yrotation Xrotation
									JOINT left_thumb_2
									{
										OFFSET 0.021637 -0.017639 0.011623
										CHANNELS 3 Zrotation Yrotation Xrotation
										JOINT left_thumb_3
										{
											OFFSET 0.024002 -0.008356 0.006548
											CHANNELS 3 Zrotation Yrotation Xrotation
											End Site
											{
												OFFSET 0.000000 0.000000 0.000000
											}
										}
									}
								}
							}
						}
					}
				}
				JOINT right_collar
				{
					OFFSET -0.047695 0.084339 -0.013400
					CHANNELS 3 Zrotation Yrotation Xrotation
					JOINT right_shoulder
					{
						OFFSET -0.102578 0.053524 -0.012669
						CHANNELS 3 Zrotation Yrotation Xrotation
						JOINT right_elbow
						{
							OFFSET -0.271150 -0.036492 -0.026467
							CHANNELS 3 Zrotation Yrotation Xrotation
							JOINT right_wrist
							{
								OFFSET -0.249267 -0.004533 -0.015325
								CHANNELS 3 Zrotation Yrotation Xrotation
								JOINT right_index_1
								{
									OFFSET -0.099881 -0.011783 0.019600
									CHANNELS 3 Zrotation Yrotation Xrotation
									JOINT right_index_2
									{
										OFFSET -0.030148 -0.011154 0.001151
										CHANNELS 3 Zrotation Yrotation Xrotation
										JOINT right_index_3
										{
											OFFSET -0.006505 -0.021577 -0.002432
											CHANNELS 3 Zrotation Yrotation Xrotation
											End Site
											{
												OFFSET 0.000000 0.000000 0.000000
											}
										}
									}
								}
								JOINT right_middle_1
								{
									OFFSET -0.107376 -0.009422 -0.003734
									CHANNELS 3 Zrotation Yrotation Xrotation
									JOINT right_middle_2
									{
										OFFSET -0.026472 -0.015218 -0.004641
										CHANNELS 3 Zrotation Yrotation Xrotation
										JOINT right_middle_3
										{
											OFFSET -0.005022 -0.023347 -0.001911
											CHANNELS 3 Zrotation Yrotation Xrotation
											End Site
											{
												OFFSET 0.000000 0.000000 0.000000
											}
										}
									}
								}
								JOINT right_pinky_1
								{
									OFFSET -0.082027 -0.017634 -0.043503
									CHANNELS 3 Zrotation Yrotation Xrotation
									JOINT right_pinky_2
									{
										OFFSET -0.012123 -0.014448 -0.005374
										CHANNELS 3 Zrotation Yrotation Xrotation
										JOINT right_pinky_3
										{
											OFFSET -0.003798 -0.018852 0.000167
											CHANNELS 3 Zrotation Yrotation Xrotation
											End Site
											{
												OFFSET 0.000000 0.000000 0.000000
											}
										}
									}
								}
								JOINT right_ring_1
								{
									OFFSET -0.095423 -0.012362 -0.027099
									CHANNELS 3 Zrotation Yrotation Xrotation
									JOINT right_ring_2
									{
										OFFSET -0.023561 -0.016057 -0.001895
										CHANNELS 3 Zrotation Yrotation Xrotation
										JOINT right_ring_3
										{
											OFFSET -0.004257 -0.023548 0.000816
											CHANNELS 3 Zrotation Yrotation Xrotation
											End Site
											{
												OFFSET 0.000000 0.000000 0.000000
											}
										}
									}
								}
								JOINT right_thumb_1
								{
									OFFSET -0.038613 -0.021074 0.025861
									CHANNELS 3 Zrotation Yrotation Xrotation
									JOINT right_thumb_2
									{
										OFFSET -0.021636 -0.017639 0.011623
										CHANNELS 3 Zrotation Yrotation Xrotation
										JOINT right_thumb_3
										{
											OFFSET -0.024004 -0.008353 0.006547
											CHANNELS 3 Zrotation Yrotation Xrotation
											End Site
											{
												OFFSET 0.000000 0.000000 0.000000
											}
										}
									}
								}
							}
						}
					}
				}
			}
		}
	}
}
MOTION
Frames: 5
Frame Time: 0.050000
0.063392 0.914387 0.733124 -103.052292 -82.776909 103.481989 -11.208819 2.533890 -21.161229 38.440562 0.983175 17.027509 -152.267408 64.349027 1.936703 0.000000 0.000000 0.000000 3.855031 2.261003 12.622417 26.105482 21.367757 -11.995642 -35.478799 -11.130851 74.060436 0.000000 0.000000 0.000000 -1.847162 0.607552 19.893867 7.545517 0.642330 -35.260856 -16.442648 -41.957674 44.314277 13.269265 3.475511 0.608100 0.000000 0.000000 0.000000 20.567285 -0.854508 51.446209 -126.275736 -61.185419 147.964683 10.583692 -13.867527 -1.829740 8.515291 -0.724034 -47.748640 -6.068202 48.543104 5.596231 -96.645738 28.664795 7.241909 0.000000 0.000000 0.000000 -54.559228 -14.315120 6.481057 -67.341116 -22.514223 -26.870715 0.000000 0.000000 0.000000 3.626565 -47.939079 -54.328389 -4.182892 -5.662760 -15.641294 0.000000 0.000000 0.000000 -36.180621 -42.944240 -3.825418 -5.514286 -27.444829 -59.262663 0.000000 0.000000 0.000000 101.030647 26.299390 31.925503 -104.435086 -23.191037 41.259455 0.000000 0.000000 0.000000 -20.455984 -3.250044 -39.499312 89.176733 -53.557119 -113.916362 23.701715 -30.497050 -9.352513 -4.831955 -0.163705 75.577010 42.271613 -40.981605 -11.491414 -31.364263 -9.900763 36.101870 0.000000 0.000000 0.000000 36.767860 -29.965899 -4.364465 84.566914 -23.900810 0.519375 0.000000 0.000000 0.000000 -98.393071 -9.899731 -92.078256 -27.319130 8.246022 -32.981525 0.000000 0.000000 0.000000 -74.450050 22.809789 -63.423747 -22.772169 56.818721 -130.820070 0.000000 0.000000 0.000000 -15.358553 -65.367283 43.478213 -12.298230 30.876188 -22.448058 0.000000 0.000000 0.000000 
0.060094 0.913017 0.743683 -103.821767 -82.791246 104.228908 -12.543496 2.058977 -20.135185 39.571391 1.352049 15.881201 -157.239230 64.670575 -2.970484 0.000000 0.000000 0.000000 3.885881 2.844419 14.483731 24.078371 21.641458 -14.973513 -36.364069 -10.929449 74.050911 0.000000 0.000000 0.000000 -1.905347 0.572372 19.515879 8.847192 1.396476 -35.267796 -16.961412 -42.992177 43.831570 14.595862 4.103921 1.464020 0.000000 0.000000 0.000000 20.261554 -0.467904 51.074719 -125.292511 -61.853191 146.795726 10.334670 -15.884123 -1.660641 7.319875 -0.285108 -48.985178 -10.438269 47.680059 1.572284 -89.983562 25.725257 13.443525 0.000000 0.000000 0.000000 -54.869773 -6.750603 6.634487 -66.010912 -20.439924 -23.413126 0.000000 0.000000 0.000000 -6.259700 -44.969423 -44.162544 -14.162183 -7.911840 -17.752165 0.000000 0.000000 0.000000 -40.868722 -39.810111 -0.178917 -26.907432 -30.156025 -39.944211 0.000000 0.000000 0.000000 107.587109 32.468091 40.140135 -118.225490 -23.964157 45.091833 0.000000 0.000000 0.000000 -20.340545 -3.164348 -40.333326 87.929440 -57.689839 -114.813007 22.468112 -32.583171 -9.893371 -5.596589 0.401489 73.308458 47.250716 -45.336901 -15.020634 -34.711917 -7.769129 39.001334 0.000000 0.000000 0.000000 37.844476 -44.331558 -5.437262 72.818430 -26.042789 16.111110 0.000000 0.000000 0.000000 -101.385532 -11.565692 -94.953476 -27.420829 8.078941 -32.494065 0.000000 0.000000 0.000000 -90.178595 23.781336 -76.772974 -27.321755 45.172543 -133.891579 0.000000 0.000000 0.000000 -25.485148 -69.305130 54.618808 -14.649508 34.479315 -25.486205 0.000000 0.000000 0.000000 
0.057738 0.910882 0.754242 -88.249963 -83.954936 88.296900 -14.373509 1.523636 -19.289484 39.385854 1.202258 15.329036 -159.714836 65.943722 -5.591388 0.000000 0.000000 0.000000 4.544340 2.985821 15.926988 20.843141 19.741478 -17.028367 -39.415038 -9.223934 75.127327 0.000000 0.000000 0.000000 -3.167374 1.061913 19.434409 9.527019 2.042432 -37.474134 -16.493022 -42.884561 43.580667 15.797918 4.220082 0.900277 0.000000 0.000000 0.000000 23.384806 -4.319494 57.779926 -137.272323 -64.895666 166.398938 12.750728 -15.649356 -2.030934 12.730494 2.089294 -51.136004 -14.264289 48.289160 2.087133 -86.131300 28.177792 14.863695 0.000000 0.000000 0.000000 -58.831181 -10.967456 8.185058 -67.598361 -20.826392 -26.421476 0.000000 0.000000 0.000000 -5.085896 -50.010937 -47.812430 -8.422236 -8.455672 -21.783868 0.000000 0.000000 0.000000 -44.285463 -44.838604 1.725278 -24.151280 -31.545016 -47.705008 0.000000 0.000000 0.000000 102.842611 25.005732 33.277524 -108.743164 -15.178765 42.181517 0.000000 0.000000 0.000000 -22.525405 -7.719519 -44.159920 94.467327 -65.403454 -127.064719 17.902503 -34.677865 -8.688415 -9.794160 1.881032 72.567663 55.544858 -53.863421 -21.432264 -30.450379 -11.608305 47.473053 0.000000 0.000000 0.000000 87.991604 -29.440831 -7.657293 74.121302 -6.652953 5.624651 0.000000 0.000000 0.000000 -95.753372 -8.240252 -111.880987 -24.501055 3.826131 -16.046338 0.000000 0.000000 0.000000 -101.795042 18.543969 -108.022862 -23.589975 28.844096 -108.963842 0.000000 0.000000 0.000000 -65.771721 -72.834170 93.740560 -19.342581 43.452103 -34.066160 0.000000 0.000000 0.000000 
0.058209 0.909270 0.767441 -94.908005 -84.190995 94.096222 -14.742418 1.335337 -18.370849 38.143202 1.036773 15.934531 -158.763113 64.301479 -4.952904 0.000000 0.000000 0.000000 4.985524 3.344874 17.101357 18.728710 18.081549 -17.319697 -42.314450 -7.390172 74.588882 0.000000 0.000000 0.000000 -2.917933 0.964196 19.421658 9.443775 2.394758 -38.120487 -16.845194 -42.632231 44.470857 14.451698 3.706913 0.087177 0.000000 0.000000 0.000000 24.619540 -4.441826 62.109021 -145.256048 -67.863408 -177.695808 15.920861 -15.796017 -2.118424 11.709367 3.838573 -46.775139 -4.372646 41.107874 4.995421 -96.395383 23.865371 7.752305 0.000000 0.000000 0.000000 -53.638404 -16.835140 6.273844 -67.360720 -23.093993 -26.321210 0.000000 0.000000 0.000000 -0.360682 -47.305068 -46.701798 -5.677823 -6.521618 -17.485435 0.000000 0.000000 0.000000 -41.574853 -40.809810 1.487350 -14.280638 -29.453797 -51.371941 0.000000 0.000000 0.000000 101.834231 26.750945 40.303118 -101.199198 -28.712059 42.502258 0.000000 0.000000 0.000000 -24.065604 -8.687372 -46.870404 99.513288 -69.382364 -136.501381 15.560358 -34.269164 -7.892894 -13.476008 -0.384120 65.231061 46.369219 -56.792377 -15.921592 -38.753223 -5.905062 47.979507 0.000000 0.000000 0.000000 68.431848 -31.977623 -7.976749 88.322690 -11.501479 13.999872 0.000000 0.000000 0.000000 -92.205428 -4.050445 -104.796602 -27.084806 3.813473 -17.032353 0.000000 0.000000 0.000000 -91.195858 24.450107 -93.665697 -29.865619 24.834147 -119.862287 0.000000 0.000000 0.000000 -78.703667 -67.034446 102.295799 -7.413959 45.764827 -25.207046 0.000000 0.000000 0.000000 
0.059387 0.907739 0.783279 -28.203955 -79.981108 28.266998 -18.378036 0.652460 -18.191915 38.480880 0.347778 12.670115 -149.917374 70.789536 3.576596 0.000000 0.000000 0.000000 7.706756 1.987839 18.313141 12.286667 15.251525 -22.913613 -44.160242 -6.806604 80.110937 0.000000 0.000000 0.000000 -1.819109 0.329915 19.704044 8.281886 1.892690 -42.654479 -17.400502 -43.848566 45.402105 16.971777 3.992472 -1.191617 0.000000 0.000000 0.000000 31.096636 -12.460430 69.623887 -170.188604 -66.304576 -138.164936 21.797778 -4.886982 -2.797478 7.677863 -0.203206 -47.928946 4.376010 38.739497 8.889866 -101.580185 22.591678 4.125937 0.000000 0.000000 0.000000 -49.366371 -21.702672 4.182665 -61.474363 -25.499651 -25.988964 0.000000 0.000000 0.000000 4.041909 -47.348439 -49.516225 0.141925 -3.277663 -9.811819 0.000000 0.000000 0.000000 -36.251966 -43.760962 -2.278466 -4.918498 -23.250753 -49.050694 0.000000 0.000000 0.000000 101.539629 26.040034 39.644685 -95.510851 -33.199099 39.550828 0.000000 0.000000 0.000000 -28.479687 -17.944576 -53.054564 124.687673 -80.130516 -166.963597 8.673536 -34.118778 -5.357793 -12.896145 -3.356098 57.228810 49.862340 -60.916218 -17.489372 -44.319208 1.201678 44.198161 0.000000 0.000000 0.000000 87.204422 -14.629837 -3.454754 84.170978 -20.543202 13.370464 0.000000 0.000000 0.000000 -92.563832 0.292851 -107.417395 -33.707147 2.480112 -11.302941 0.000000 0.000000 0.000000 -94.427257 24.680935 -96.238190 -31.648453 22.879922 -121.265756 0.000000 0.000000 0.000000 -89.741093 -62.403095 109.961698 -1.263196 43.953313 -19.468888 0.000000 0.000000 0.000000 
